<svg xmlns="http://www.w3.org/2000/svg" viewBox="0 0 53.68 47.53"><defs><style>.cls-1{fill:#fff;}</style></defs><title>Asset 230</title><g id="Layer_2" data-name="Layer 2"><g fill="#fff" id="Layer_1-2" data-name="Layer 1"><path class="cls-1"  d="M20.23,11.73a3.69,3.69,0,1,1-3.69,3.69,3.69,3.69,0,0,1,3.69-3.69Z"/><path class="cls-1" d="M48.51,42.41a8.1,8.1,0,0,1-11.32.1c-.2-.2-.41-.46-.61-.67s-.31-.36-.46-.51a4.86,4.86,0,0,1-.51-.87c-.1-.2-.2-.36-.31-.56A4.33,4.33,0,0,1,35,39c-.05-.2-.15-.46-.2-.67a8.48,8.48,0,0,1-.15-1.64A8.22,8.22,0,0,1,37,31a7.92,7.92,0,0,1,5.74-2.36A8.22,8.22,0,0,1,48.51,31a8,8,0,0,1,2.36,5.74,8.19,8.19,0,0,1-2.36,5.69Zm-41.34-.1A4.49,4.49,0,0,1,4,41,4.67,4.67,0,0,1,2.71,37.8V31.45l9.07-9.12,7.73,7.73h0a1.42,1.42,0,0,0,1.95,0L32.88,18.59l7.48,7.53-.46.15a4.76,4.76,0,0,0-.67.2c-.2.05-.41.15-.61.2a1.53,1.53,0,0,0-.41.2,4.76,4.76,0,0,0-.51.26l-.77.46-.41.26c-.1.05-.15.1-.26.15A6.18,6.18,0,0,0,35,29.09a10.84,10.84,0,0,0-3.18,7.68A11.26,11.26,0,0,0,32.12,39c.05.2.1.36.15.56.15.51.31,1,.51,1.54v.05a9.4,9.4,0,0,0,.67,1.23H7.17v-.1ZM4,4.1A4.49,4.49,0,0,1,7.22,2.77H36.93a4.55,4.55,0,0,1,4.51,4.51v16l-7.58-7.58a1.38,1.38,0,0,0-1.95,0h0L20.49,27.15l-7.73-7.79a1.38,1.38,0,0,0-1.95,0h0l-8.09,8.2V7.22A4.29,4.29,0,0,1,4,4.1ZM44.15,26V7.22a7.37,7.37,0,0,0-2.1-5.12A7.16,7.16,0,0,0,36.93,0H7.22A7.37,7.37,0,0,0,2.1,2.1,7.16,7.16,0,0,0,0,7.22V37.8a7.37,7.37,0,0,0,2.1,5.12A7.16,7.16,0,0,0,7.22,45H36A10.84,10.84,0,0,0,50.51,29a11.36,11.36,0,0,0-6.35-3Z"/><path class="cls-1" d="M43.74,31.19a1.79,1.79,0,0,0-.46-.31,1.5,1.5,0,0,0-.46-.1h-.1a1.5,1.5,0,0,0-.46.1,1.21,1.21,0,0,0-.46.31l-3.18,3.18a1.38,1.38,0,1,0,1.95,1.95l.82-.82v5.63a1.38,1.38,0,0,0,2.77,0V35.5l.82.82a1.38,1.38,0,1,0,1.95-1.95l-3.18-3.18Z"/></g></g></svg>