<svg xmlns="http://www.w3.org/2000/svg" viewBox="0 0 60.04 58.03"><defs><style>.cls-1{fill:#fff;}</style></defs><title>Star0</title><g fill="#ffffff" id="Layer_2" data-name="Layer 2"><g id="Layer_1-2" data-name="Layer 1"><path class="cls-1" d="M22,24a2,2,0,0,0,1.86-1.26L30,7.39l6.15,15.37A2,2,0,0,0,38,24H52l-11.21,8.4a2,2,0,0,0-.73,2.13l4.23,15.52-13-11.54a2,2,0,0,0-2.58-.07L14.33,50,19.9,34.71a2,2,0,0,0-.69-2.29L8,24ZM15.62,34.73,8.13,55.35a2,2,0,0,0,3.13,2.24L30,42.64,46.7,57.52a2,2,0,0,0,3.26-2L44.32,34.81,59.24,23.62A2,2,0,0,0,58,20H39.38L31.88,1.26A2,2,0,0,0,29.28.14a2.05,2.05,0,0,0-1.12,1.12L20.66,20H2a2,2,0,0,0-2,2,2,2,0,0,0,.8,1.61L15.62,34.73Z"/></g></g></svg>